PathFileType	4	(x/y/z)	S08_PSF_T04
DataRate	CameraRate	NumFrames	NumMarkers	Units	OrigDataRate	OrigDataStartFrame	OrigNumFrames
240	240	9	51	mm	240	158	420
Frame#	Time	Sternum			R.Acromium			L.Acromium			Top.Head			R.ASIS			L.ASIS			R.PSIS			L.PSIS			R.Great.Tro			L.Great.Tro			R.Iliac.Crest			L.Iliac.Crest			V.Sacral			R.Thigh.Upper.Post			R.Thigh.Lower.Ant			R.Thigh.Lower.Post			R.Thigh.Upper.Ant			R.Knee.Lat			R.Knee.Med			R.Shank.Upper.Post			R.Shank.Lower.Ant			R.Shank.Lower.Post			R.Shank.Upper.Ant			R.Ankle.Lat			R.Ankle.Med			R.Heel.Upper			R.Heel.Med			R.Heel.Lat			R.Toe.Lat			R.Toe.Med			R.Toe.Tip			L.Thigh.Upper.Post			L.Thigh.Lower.Ant			L.Thigh.Lower.Post			L.Thigh.Upper.Ant			L.Knee.Lat			L.Knee.Med			L.Shank.Upper.Post			L.Shank.Lower.Ant			L.Shank.Lower.Post			L.Shank.Upper.Ant			L.Ankle.Lat			L.Ankle.Med			L.Heel.Upper			L.Heel.Med			L.Heel.Lat			L.Toe.Lat			L.Toe.Med			L.Toe.Tip			Cervical.Spine			Back			
		X1	Y1	Z1	X2	Y2	Z2	X3	Y3	Z3	X4	Y4	Z4	X5	Y5	Z5	X6	Y6	Z6	X7	Y7	Z7	X8	Y8	Z8	X9	Y9	Z9	X10	Y10	Z10	X11	Y11	Z11	X12	Y12	Z12	X13	Y13	Z13	X14	Y14	Z14	X15	Y15	Z15	X16	Y16	Z16	X17	Y17	Z17	X18	Y18	Z18	X19	Y19	Z19	X20	Y20	Z20	X21	Y21	Z21	X22	Y22	Z22	X23	Y23	Z23	X24	Y24	Z24	X25	Y25	Z25	X26	Y26	Z26	X27	Y27	Z27	X28	Y28	Z28	X29	Y29	Z29	X30	Y30	Z30	X31	Y31	Z31	X32	Y32	Z32	X33	Y33	Z33	X34	Y34	Z34	X35	Y35	Z35	X36	Y36	Z36	X37	Y37	Z37	X38	Y38	Z38	X39	Y39	Z39	X40	Y40	Z40	X41	Y41	Z41	X42	Y42	Z42	X43	Y43	Z43	X44	Y44	Z44	X45	Y45	Z45	X46	Y46	Z46	X47	Y47	Z47	X48	Y48	Z48	X49	Y49	Z49	X50	Y50	Z50	X51	Y51	Z51	

158	0.65417	-620.76	1216.4	346.81	-748.6	1448	525.38	-760.99	1479.1	191.66	-747.49	1769.9	370.55	-632.5	1003.6	449.91	-640.98	998.2	216.96	-838.59	1021.9	386.65	-836.56	1026.4	293.82	-683.86	896.26	524.46	-750.75	892.44	158.21	-729.14	1068.2	501.64	-738.49	1079.8	193.11	-854.64	984.09	339.98	-648.15	698.94	505.78	-549.27	626.9	462.81	-618.05	615.33	481.91	-573.47	716.4	486.01	-554.43	525.5	452.89	-595.02	521.02	332.62	-584.52	330.52	460.37	-515.62	279.98	429.96	-572.35	254.76	449.99	-527.44	356.88	443.41	-547.03	90.655	404.42	-520.07	115.32	327.19	-589.55	61.782	351.92	-574.14	36.493	324.77	-582.76	37.09	386.09	NaN	NaN	NaN	-392.2	60.81	320.52	-332.79	89.219	367.76	-793.09	692.94	173.61	-716.05	592.53	178.56	-784.86	602.15	183.55	-722.55	680.5	163.51	-789.17	500.53	192.81	-765.85	486.9	316.3	-944.12	405.83	193.54	-956.94	294.61	205.48	-997.11	354.74	208.84	-905.8	352.85	192.99	-1097.9	209.82	217.32	-1075.4	201.58	301	-1145.7	241.91	263.13	-1164.6	218.66	298.59	-1165.8	217.76	233.92	-1085.6	63.369	222.5	-1065.3	69.377	336.05	-1018.1	35.385	296.51	-821.05	1505.2	352.7	-858.79	1219.1	356.6
159	0.65833	-615.14	1217.1	346.99	-742.71	1448.7	525.72	-755.4	1479.8	191.99	-741.98	1770.5	370.89	-626.83	1004.5	450.35	-635.31	998.66	217.4	-832.93	1022.6	386.89	-830.88	1026.8	294.05	-678.29	897.24	525.02	-744.57	892.41	158.7	-723.44	1069.2	501.92	-732.89	1080.2	193.43	-848.95	984.62	340.33	-643.25	699.58	506.52	-544.67	627.18	463.41	-613.47	615.87	482.67	-568.54	716.79	486.59	-550.37	525.58	453.43	-590.92	521.44	333.15	-581.79	330.74	460.87	-513.3	279.73	430.28	-570.17	254.91	450.42	-524.54	356.71	443.82	-546.36	90.69	404.56	-519.2	115.25	327.45	-589.19	62.089	352.07	-573.94	36.78	324.84	-582.53	37.291	386.18	NaN	NaN	NaN	-391.77	59.794	320.52	-332.05	87.605	367.79	-784.85	692.2	173.56	-706.82	592.54	177.99	-775.57	601.47	183.05	-714.15	680.59	163.26	-778.49	500.13	191.83	-754.67	486.03	315.52	-933.66	407.11	192.39	-947.73	295.97	204.26	-987.27	356.62	207.64	-895.95	353.71	191.91	-1089.4	213.32	215.59	-1067.4	204.67	299.6	-1136	247.14	261.08	-1155.9	224.66	296.59	-1156.8	223.6	231.88	-1081.6	66.053	221.54	-1061.5	71.968	335.01	-1015.7	35.066	295.81	-815.39	1505.9	353.11	-853.13	1219.8	357.05
160	0.6625	-609.58	1217.8	347.15	-736.81	1449.4	526.03	-749.82	1480.5	192.3	-736.48	1771.2	371.22	-621.23	1005.3	450.79	-629.71	999.13	217.83	-827.32	1023.3	387.13	-825.28	1027.2	294.27	-672.81	898.21	525.58	-738.44	892.4	159.21	-717.79	1070.2	502.2	-727.36	1080.5	193.76	-843.32	985.14	340.68	-638.49	700.2	507.22	-540.22	627.41	464.01	-609.05	616.39	483.39	-563.74	717.13	487.17	-546.45	525.65	453.95	-586.95	521.86	333.65	-579.18	330.96	461.32	-511.1	279.5	430.58	-568.1	255.07	450.79	-521.77	356.56	444.21	-545.75	90.743	404.67	-518.4	115.19	327.68	-588.86	62.369	352.21	-573.75	37.047	324.92	-582.33	37.478	386.27	NaN	NaN	NaN	-391.4	58.858	320.48	-331.37	86.122	367.76	-776.54	691.51	173.51	-697.51	592.63	177.47	-766.21	600.86	182.57	-705.68	680.73	163.05	-767.71	499.8	190.89	-743.5	485.28	314.8	-923.04	408.38	191.24	-938.32	297.36	203.1	-977.24	358.49	206.44	-885.92	354.58	190.87	-1080.7	216.8	213.9	-1059.2	207.73	298.23	-1126.2	252.23	259.09	-1147	230.49	294.63	-1147.6	229.31	229.89	-1077.2	68.833	220.52	-1057.4	74.606	333.89	-1012.8	34.83	295	-809.73	1506.5	353.5	-847.51	1220.5	357.51
161	0.66667	-604.07	1218.4	347.29	-730.91	1450.1	526.33	-744.27	1481.2	192.59	-730.98	1771.8	371.55	-615.69	1006.2	451.25	-624.17	999.61	218.27	-821.78	1024	387.37	-819.76	1027.6	294.49	-667.41	899.16	526.14	-732.35	892.39	159.73	-712.22	1071.1	502.49	-721.88	1080.9	194.09	-837.75	985.65	341.04	-633.87	700.8	507.88	-535.92	627.6	464.6	-604.79	616.88	484.07	-559.07	717.43	487.76	-542.68	525.7	454.44	-583.13	522.27	334.11	-576.7	331.18	461.72	-509	279.27	430.85	-566.14	255.24	451.12	-519.13	356.41	444.57	-545.19	90.812	404.76	-517.68	115.14	327.88	-588.56	62.622	352.34	-573.59	37.291	324.98	-582.14	37.651	386.35	NaN	NaN	NaN	-391.07	57.997	320.42	-330.75	84.762	367.69	-768.17	690.88	173.45	-688.12	592.81	177.01	-756.77	600.32	182.11	-697.15	680.94	162.86	-756.82	499.56	190	-732.34	484.68	314.16	-912.27	409.64	190.12	-928.73	298.79	202.01	-967.01	360.35	205.23	-875.73	355.46	189.9	-1071.7	220.25	212.25	-1050.8	210.75	296.9	-1116.1	257.16	257.17	-1137.8	236.12	292.74	-1138.1	234.87	227.96	-1072.4	71.688	219.42	-1052.8	77.266	332.71	-1009.6	34.695	294.07	-804.07	1507.2	353.89	-841.94	1221.2	357.96
162	0.67083	-598.6	1219.1	347.4	-725.01	1450.8	526.6	-738.73	1482	192.87	-725.48	1772.5	371.87	-610.2	1007.1	451.71	-618.69	1000.1	218.72	-816.29	1024.6	387.62	-814.3	1028	294.72	-662.09	900.07	526.7	-726.3	892.4	160.25	-706.7	1072.1	502.78	-716.46	1081.2	194.42	-832.24	986.16	341.39	-629.4	701.38	508.49	-531.77	627.74	465.17	-600.7	617.34	484.69	-554.53	717.68	488.35	-539.06	525.74	454.9	-579.44	522.67	334.54	-574.35	331.39	462.07	-507.02	279.06	431.09	-564.3	255.4	451.4	-516.62	356.27	444.89	-544.69	90.896	404.83	-517.03	115.1	328.05	-588.3	62.85	352.45	-573.44	37.514	325.03	-581.97	37.812	386.42	NaN	NaN	NaN	-390.78	57.204	320.32	-330.2	83.52	367.58	-759.74	690.31	173.4	-678.66	593.09	176.58	-747.27	599.86	181.69	-688.57	681.22	162.7	-745.86	499.41	189.18	-721.21	484.22	313.6	-901.37	410.9	189.02	-918.97	300.25	200.99	-956.63	362.19	204.05	-865.39	356.37	188.99	-1062.6	223.66	210.65	-1042.1	213.72	295.61	-1105.9	261.92	255.34	-1128.3	241.51	290.92	-1128.5	240.23	226.11	-1067.2	74.6	218.26	-1047.7	79.924	331.45	-1005.8	34.681	293.01	-798.42	1507.9	354.26	-836.41	1222	358.42
163	0.675	-593.18	1219.7	347.5	-719.11	1451.5	526.85	-733.22	1482.7	193.12	-719.99	1773.2	372.19	-604.76	1008	452.17	-613.26	1000.6	219.16	-810.86	1025.3	387.87	-808.9	1028.4	294.96	-656.84	900.95	527.25	-720.29	892.43	160.79	-701.24	1073	503.07	-711.09	1081.6	194.76	-826.8	986.67	341.76	-625.06	701.93	509.04	-527.76	627.84	465.73	-596.77	617.78	485.26	-550.12	717.89	488.92	-535.59	525.76	455.33	-575.89	523.06	334.93	-572.13	331.61	462.36	-505.16	278.87	431.31	-562.58	255.57	451.61	-514.24	356.13	445.19	-544.23	90.992	404.86	-516.44	115.06	328.2	-588.08	63.053	352.54	-573.3	37.714	325.07	-581.82	37.963	386.48	NaN	NaN	NaN	-390.52	56.476	320.21	-329.7	82.39	367.42	-751.25	689.81	173.36	-669.12	593.46	176.21	-737.71	599.49	181.31	-679.93	681.57	162.58	-734.83	499.36	188.41	-710.13	483.91	313.12	-890.36	412.17	187.95	-909.07	301.74	200.04	-946.09	364.02	202.88	-854.91	357.3	188.14	-1053.2	227.02	209.12	-1033.2	216.62	294.36	-1095.6	266.46	253.63	-1118.7	246.65	289.21	-1118.6	245.37	224.36	-1061.5	77.548	217.02	-1042.2	82.557	330.12	-1001.6	34.806	291.82	-792.78	1508.7	354.63	-830.93	1222.8	358.88
164	0.67917	-587.79	1220.3	347.58	-713.22	1452.2	527.09	-727.74	1483.5	193.36	-714.49	1773.9	372.49	-599.37	1008.8	452.63	-607.88	1001.1	219.61	-805.48	1026	388.13	-803.57	1028.8	295.21	-651.66	901.79	527.79	-714.33	892.49	161.32	-695.83	1074	503.36	-705.76	1081.9	195.1	-821.41	987.17	342.13	-620.87	702.46	509.54	-523.9	627.9	466.26	-592.99	618.2	485.77	-545.84	718.07	489.48	-532.26	525.76	455.72	-572.49	523.44	335.27	-570.04	331.82	462.59	-503.41	278.68	431.49	-560.98	255.74	451.78	-512	356	445.45	-543.82	91.097	404.88	-515.92	115.03	328.31	-587.88	63.234	352.61	-573.18	37.891	325.1	-581.68	38.103	386.53	NaN	NaN	NaN	-390.31	55.808	320.07	-329.26	81.364	367.24	-742.71	689.39	173.33	-659.51	593.95	175.88	-728.09	599.21	180.97	-671.25	681.99	162.49	-723.74	499.41	187.71	-699.11	483.76	312.72	-879.25	413.43	186.92	-899.03	303.26	199.16	-935.43	365.83	201.74	-844.3	358.26	187.35	-1043.7	230.3	207.66	-1024.2	219.45	293.16	-1085.1	270.78	252.04	-1108.8	251.49	287.62	-1108.7	250.26	222.74	-1055.3	80.513	215.72	-1036.1	85.142	328.73	-996.72	35.086	290.47	-787.16	1509.5	354.99	-825.48	1223.7	359.33
165	0.68333	-582.45	1221	347.65	-707.34	1452.9	527.31	-722.28	1484.2	193.59	-709	1774.6	372.78	-594.03	1009.7	453.1	-602.55	1001.7	220.06	-800.14	1026.6	388.41	-798.29	1029.2	295.46	-646.54	902.6	528.33	-708.41	892.59	161.87	-690.46	1074.9	503.66	-700.47	1082.3	195.44	-816.07	987.67	342.5	-616.8	702.98	509.98	-520.18	627.93	466.77	-589.37	618.61	486.23	-541.68	718.2	490.01	-529.09	525.76	456.08	-569.22	523.81	335.57	-568.09	332.03	462.77	-501.78	278.5	431.66	-559.49	255.92	451.89	-509.9	355.87	445.68	-543.46	91.209	404.87	-515.44	115	328.39	-587.71	63.395	352.67	-573.08	38.047	325.13	-581.56	38.234	386.57	NaN	NaN	NaN	-390.12	55.198	319.91	-328.86	80.436	367.03	-734.13	689.05	173.31	-649.84	594.54	175.6	-718.43	599.03	180.68	-662.52	682.49	162.43	-712.61	499.59	187.08	-688.16	483.76	312.39	-868.06	414.69	185.93	-888.86	304.79	198.35	-924.65	367.61	200.64	-833.59	359.24	186.62	-1034.1	233.52	206.28	-1014.9	222.2	292	-1074.6	274.87	250.59	-1098.8	256.02	286.16	-1098.6	254.88	221.25	-1048.6	83.474	214.34	-1029.5	87.658	327.26	-991.26	35.532	288.98	-781.54	1510.3	355.34	-820.07	1224.5	359.79
166	0.6875	-577.13	1221.6	347.71	-701.47	1453.7	527.51	-716.85	1485	193.8	-703.5	1775.3	373.07	-588.73	1010.5	453.56	-597.26	1002.2	220.52	-794.85	1027.3	388.69	-793.07	1029.6	295.73	-641.49	903.36	528.85	-702.53	892.72	162.41	-685.14	1075.8	503.97	-695.21	1082.7	195.79	-810.79	988.18	342.88	-612.86	703.49	510.35	-516.6	627.92	467.25	-585.89	618.99	486.63	-537.63	718.31	490.52	-526.06	525.74	456.4	-566.08	524.16	335.84	-566.27	332.24	462.89	-500.27	278.33	431.8	-558.12	256.09	451.94	-507.92	355.75	445.88	-543.13	91.326	404.84	-515.02	114.98	328.44	-587.56	63.537	352.72	-572.99	38.184	325.15	-581.45	38.357	386.6	NaN	NaN	NaN	-389.96	54.641	319.75	-328.5	79.597	366.8	-725.49	688.78	173.3	-640.11	595.24	175.38	-708.73	598.94	180.44	-653.75	683.08	162.4	-701.45	499.88	186.53	-677.28	483.91	312.14	-856.8	415.97	184.99	-878.58	306.34	197.6	-913.77	369.37	199.58	-822.79	360.25	185.95	-1024.3	236.64	204.98	-1005.4	224.85	290.89	-1064.1	278.69	249.29	-1088.7	260.2	284.85	-1088.4	259.21	219.91	-1041.4	86.411	212.89	-1022.3	90.085	325.74	-985.13	36.151	287.34	-775.94	1511.1	355.69	-814.69	1225.4	360.25
